<?xml version="1.0" encoding="UTF-8" standalone="no"?>
<svg width="223px" height="35px" viewBox="0 0 223 35" version="1.1" xmlns="http://www.w3.org/2000/svg" xmlns:xlink="http://www.w3.org/1999/xlink">
    <!-- Generator: Sketch 42 (36781) - http://www.bohemiancoding.com/sketch -->
    <title>Logo</title>
    <desc>Created with Sketch.</desc>
    <defs></defs>
    <g id="Desktop" stroke="none" stroke-width="1" fill="none" fill-rule="evenodd">
        <g id="Desktop---Catalog" transform="translate(-309.000000, -198.000000)">
            <g id="Logo" transform="translate(311.000000, 200.000000)">
                <g id="Polygon" stroke-width="3" stroke="#FFBD00">
                    <polygon points="13.5502405 0.37804878 26.6985572 8.0309499 26.6985572 23.3367521 13.5502405 30.9896533 0.401923789 23.3367521 0.401923789 8.0309499"></polygon>
                </g>
                <g transform="translate(40.000000, 4.000000)">
                    <path d="M6.6943,4.0586 L5.5763,10.3766 L7.8473,10.3766 C10.0293,10.3786 11.4913,9.3706 11.8323,7.4446 C12.1423,5.6916 11.5623,4.0626 8.6653,4.0606 L6.6943,4.0586 Z M15.7353,6.9996 C15.3203,9.3436 13.9203,11.1816 11.1503,11.9826 C13.1943,13.2586 13.6253,16.4046 15.0273,21.6566 L11.1143,21.6546 C9.5013,15.3946 8.9163,12.9596 5.9863,12.9576 L5.1213,12.9576 L3.5863,21.6506 L0.0003,21.6486 L3.5483,1.5636 L4.1483,1.5636 C4.8943,1.5636 5.5823,1.5656 6.2723,1.5366 C7.4383,1.5366 8.7583,1.5066 9.5643,1.5066 C14.4943,1.5096 16.3493,3.5306 15.7353,6.9996 L15.7353,6.9996 Z" id="Fill-1" fill="#47474B"></path>
                    <path d="M20.789,13.917 C24.539,13.828 26.307,12.109 26.549,10.746 C26.754,9.589 26.133,8.876 25.057,8.876 C22.428,8.874 21.303,11.514 20.789,13.917 M25.738,6.531 C29.295,6.533 30.403,8.373 29.983,10.748 C29.476,13.625 25.769,15.996 20.496,16.082 C20.415,17.893 20.864,19.404 23.194,19.406 C24.06,19.406 25.18,19.17 26.062,18.904 C26.596,18.756 27.105,18.578 27.621,18.371 L28.14,20.508 C27.584,20.774 26.981,20.983 26.345,21.19 C25.238,21.544 23.807,21.871 22.281,21.869 C17.65,21.867 16.336,18.987 17.108,14.628 C18.047,9.316 21.676,6.529 25.738,6.531" id="Fill-3" fill="#47474B"></path>
                    <path d="M40.8867,13.6328 L41.6367,9.3888 C41.2647,9.3008 40.3517,9.0628 39.7537,9.0628 C36.7967,9.0608 35.5467,11.2258 35.0227,14.1918 C34.5387,16.9218 34.3047,19.4438 36.4537,19.4448 C38.3957,19.4448 40.3727,16.5398 40.8867,13.6328 L40.8867,13.6328 Z M44.1657,14.5238 C43.7457,16.8978 43.8287,18.4708 44.0137,19.4488 C44.1167,20.0428 44.3037,20.5178 44.5147,20.8418 L41.6077,21.9098 C41.4147,21.6428 41.2277,21.3458 41.0807,20.9898 C40.8277,20.3968 40.6027,19.4768 40.7217,18.2908 C39.6157,20.6618 38.0017,21.8488 35.4627,21.8468 C31.7287,21.8448 30.4787,18.9358 31.2647,14.4868 C32.0627,9.9778 35.5757,6.6558 39.7887,6.6578 C40.9847,6.6598 42.3477,6.8988 43.4767,7.1058 C44.1117,7.2268 44.7437,7.3748 45.4037,7.5238 L44.1657,14.5238 Z" id="Fill-5" fill="#47474B"></path>
                    <path d="M56.9668,10.4062 C56.4878,9.7262 56.0468,9.1892 55.0608,9.1892 C53.8358,9.1892 51.8508,9.6032 51.0368,14.2012 C50.2188,18.8302 51.9968,19.4242 53.3998,19.4262 C53.9698,19.4262 54.6808,19.2782 55.3058,19.1302 C55.6798,19.0402 56.0538,18.9522 56.4048,18.8332 L56.8568,21.0002 C56.4968,21.1772 56.0828,21.3262 55.6138,21.4432 C54.8248,21.6792 53.7738,21.8862 52.4868,21.8862 C47.8878,21.8852 46.4838,19.0062 47.2528,14.6442 C48.1768,9.4222 51.6728,6.5482 55.5258,6.5502 C57.4078,6.5502 58.5318,7.2922 59.2348,8.5702 L56.9668,10.4062 Z" id="Fill-7" fill="#47474B"></path>
                    <path d="M66.9736,2.8174 L66.2486,6.9124 L69.9226,6.9144 L69.0766,9.3454 L65.8186,9.3434 L64.2776,18.0664 C64.0936,19.1064 64.7206,19.2844 65.4086,19.2844 C65.9746,19.2844 66.5596,19.1944 67.0266,19.0764 C67.3066,19.0164 67.5586,18.9574 67.8116,18.8694 L67.9796,21.1254 C67.6256,21.2734 67.2456,21.3924 66.8416,21.4804 C66.1196,21.6874 65.1406,21.8064 64.0356,21.8044 C61.7946,21.8024 60.3396,20.9124 60.7736,18.4504 L62.3836,9.3414 L59.6946,9.3394 L66.9736,2.8174 Z" id="Fill-9" fill="#47474B"></path>
                    <path d="M70.4248,18.4551 L72.4638,6.9161 L75.9008,6.9181 L73.9188,18.1331 C73.7558,19.0511 73.9838,19.2891 74.5518,19.2891 C74.6998,19.2891 74.9088,19.2891 75.0628,19.2601 C75.1528,19.2601 75.2418,19.2601 75.3378,19.2301 L75.3148,21.3951 C75.1488,21.4851 74.9578,21.5441 74.7378,21.6041 C74.3598,21.7231 73.8058,21.8101 73.0888,21.8101 C70.9658,21.8091 70.0728,20.4441 70.4248,18.4551 M77.0348,2.3501 C76.8258,3.5361 75.9758,4.4551 74.5708,4.4551 C73.2868,4.4531 72.7338,3.5341 72.9258,2.4351 C73.1418,1.2191 73.9918,0.3011 75.3948,0.3031 C76.6818,0.3031 77.2458,1.1621 77.0348,2.3501" id="Fill-11" fill="#47474B"></path>
                    <path d="M92.332,6.9277 C92.309,7.2247 92.311,7.5507 92.312,7.8767 C92.303,8.4397 92.221,9.2417 92.09,9.9827 C90.543,18.7367 87.424,21.8487 81.836,21.8447 C80.492,21.8427 79.539,21.4877 78.925,20.7447 C78.234,19.9137 78.053,18.5777 78.371,16.7697 L80.113,6.9197 L83.548,6.9217 L81.823,16.6827 C81.53,18.3437 81.873,19.4417 83.277,19.4417 C86.116,19.4437 87.765,14.8457 88.561,10.3367 C88.708,9.5057 88.76,8.7067 88.793,8.0237 C88.8,7.6367 88.804,7.2827 88.837,6.9257 L92.332,6.9277 Z" id="Fill-13" fill="#47474B"></path>
                    <path d="M97.333,13.9629 C101.083,13.8749 102.853,12.1549 103.095,10.7909 C103.298,9.6329 102.678,8.9219 101.601,8.9219 C98.972,8.9199 97.846,11.5599 97.333,13.9629 M102.282,6.5769 C105.84,6.5789 106.947,8.4199 106.527,10.7929 C106.02,13.6709 102.315,16.0409 97.038,16.1269 C96.959,17.9369 97.408,19.4509 99.74,19.4529 C100.606,19.4529 101.725,19.2169 102.606,18.9499 C103.141,18.8019 103.649,18.6239 104.165,18.4169 L104.684,20.5529 C104.128,20.8199 103.525,21.0269 102.891,21.2339 C101.782,21.5899 100.351,21.9139 98.827,21.9139 C94.196,21.9099 92.882,19.0309 93.652,14.6719 C94.591,9.3589 98.221,6.5749 102.282,6.5769" id="Fill-15" fill="#47474B"></path>
                    <path d="M113.5976,3.9902 L113.5976,11.0772 L115.8596,11.0772 C118.3306,11.0772 119.3136,9.5872 119.3136,7.5932 C119.3136,5.7752 118.4506,3.9612 115.5626,3.9612 C114.7286,3.9612 114.0746,3.9612 113.5976,3.9902 L113.5976,3.9902 Z M110.0256,1.4592 L110.6186,1.4592 C111.3636,1.4592 112.0486,1.4592 112.7346,1.4292 C113.8946,1.4292 115.2046,1.4002 116.0086,1.4002 C120.8626,1.4002 123.1236,3.6912 123.1236,7.4732 C123.1236,11.1652 120.5636,13.7262 115.6506,13.7262 L113.5976,13.7262 L113.5976,21.6152 L110.0256,21.6152 L110.0256,1.4592 Z" id="Fill-17" fill="#93999D"></path>
                    <path d="M125.6855,18.3711 L125.6855,6.7891 L129.1095,6.7891 L129.1095,18.0431 C129.1095,18.9671 129.3765,19.2051 129.9435,19.2051 C130.0915,19.2051 130.3005,19.2051 130.4495,19.1741 C130.5395,19.1741 130.6265,19.1741 130.7165,19.1441 L131.0745,21.3181 C130.9255,21.4081 130.7465,21.4671 130.5395,21.5271 C130.1815,21.6441 129.6445,21.7341 128.9315,21.7341 C126.8165,21.7341 125.6855,20.3651 125.6855,18.3711 M129.4375,2.2031 C129.4375,3.3941 128.7515,4.3181 127.3535,4.3181 C126.0725,4.3181 125.3575,3.3941 125.3575,2.2931 C125.3575,1.0721 126.0425,0.1501 127.4415,0.1501 C128.7225,0.1501 129.4375,1.0141 129.4375,2.2031" id="Fill-19" fill="#93999D"></path>
                    <polygon id="Fill-21" fill="#93999D" points="132.9531 6.7568 136.6211 13.7038 132.4471 21.4978 136.3361 21.4978 140.0361 13.7378 136.9381 6.7568"></polygon>
                    <polygon id="Fill-23" fill="#93999D" points="143.6132 13.7041 147.2812 6.7571 143.2962 6.7571 140.1972 13.7381 143.8982 21.4981 147.7872 21.4981"></polygon>
                    <path d="M152.0068,13.8457 C155.7278,13.7557 157.1868,12.0297 157.1868,10.6587 C157.1868,9.4987 156.4428,8.7837 155.3698,8.7837 C152.7508,8.7837 152.0968,11.4337 152.0068,13.8457 M155.6378,6.4317 C159.1818,6.4317 160.6108,8.2787 160.6108,10.6587 C160.6108,13.5487 157.3348,15.9297 152.0968,16.0197 C152.3328,17.8337 153.0478,19.3537 155.3698,19.3537 C156.2338,19.3537 157.3058,19.1157 158.1398,18.8477 C158.6458,18.6997 159.1218,18.5197 159.5998,18.3107 L160.4918,20.4547 C159.9858,20.7227 159.4198,20.9317 158.8238,21.1387 C157.7818,21.4957 156.4128,21.8247 154.8938,21.8247 C150.2788,21.8247 148.4628,18.9357 148.4628,14.5607 C148.4628,9.2297 151.5888,6.4317 155.6378,6.4317" id="Fill-25" fill="#93999D"></path>
                    <path d="M162.6953,18.3711 L162.6953,0.6271 L166.1193,0.0001 L166.1193,18.0431 C166.1193,18.9671 166.4763,19.2641 167.1603,19.2641 C167.5473,19.2641 167.9333,19.2341 168.2613,19.1441 L168.7383,19.0251 L169.1553,21.1991 L168.2913,21.4671 C167.7263,21.6151 166.9513,21.7341 166.0003,21.7341 C163.7363,21.7341 162.6953,20.3651 162.6953,18.3711" id="Fill-27" fill="#93999D"></path>
                    <path d="M179.1289,7.0273 C179.6349,7.2063 180.1109,7.3833 180.5589,7.5923 L179.5159,9.9443 C179.1289,9.7663 178.7419,9.6183 178.3559,9.4673 C177.6699,9.2293 176.7769,8.9623 176.0319,8.9623 C175.1099,8.9623 174.3659,9.4093 174.3659,10.2723 C174.3659,11.3743 175.1979,12.2673 176.8379,12.8923 C179.3089,13.8453 180.8259,14.9183 180.8259,17.4783 C180.8259,19.7403 178.9509,21.9143 175.6159,21.9143 C174.3059,21.9143 172.9659,21.5563 171.9829,21.1993 C171.3879,20.9903 170.8229,20.7523 170.3169,20.4843 L171.4189,17.9533 C171.8639,18.2223 172.3409,18.4613 172.7879,18.6683 C173.5909,19.0253 174.5149,19.3823 175.3169,19.3823 C176.7189,19.3823 177.3439,18.7873 177.3439,17.8653 C177.3439,16.8223 176.5999,15.9883 175.1689,15.4233 C172.1029,14.2613 170.8819,12.9533 170.8819,10.6003 C170.8819,8.3373 173.0559,6.4313 175.9129,6.4313 C177.1059,6.4313 178.2659,6.6993 179.1289,7.0273" id="Fill-29" fill="#93999D"></path>
                </g>
            </g>
        </g>
    </g>
</svg>